<?xml version="1.0" standalone="no"?>
<!DOCTYPE svg PUBLIC "-//W3C//DTD SVG 20010904//EN"
 "http://www.w3.org/TR/2001/REC-SVG-20010904/DTD/svg10.dtd">
<svg version="1.0" xmlns="http://www.w3.org/2000/svg"
 width="121.000000pt" height="190.000000pt" viewBox="0 0 121.000000 190.000000"
 preserveAspectRatio="xMidYMid meet">
<metadata>
Created by potrace 1.15, written by Peter Selinger 2001-2017
</metadata>
<g transform="translate(0.000000,190.000000) scale(0.100000,-0.100000)"
fill="#000000" stroke="none">
<path d="M523 1783 c-39 -54 -78 -113 -87 -130 -37 -73 -29 -170 19 -244 14
-21 80 -77 160 -134 82 -59 142 -110 151 -128 15 -27 15 -62 2 -131 -8 -46 24
-16 111 107 52 73 101 150 108 172 18 49 12 139 -12 186 -26 51 -48 72 -179
167 -184 134 -188 138 -184 185 1 22 -2 42 -8 44 -6 2 -42 -41 -81 -94z"/>
<path d="M390 1239 c-56 -77 -74 -130 -64 -185 9 -49 36 -78 149 -161 84 -62
101 -79 105 -106 3 -18 10 -32 16 -32 17 0 106 123 121 168 30 88 -4 150 -130
240 -106 75 -114 82 -119 116 -6 43 -25 33 -78 -40z"/>
<path d="M236 698 c-3 -7 -9 -27 -14 -45 l-11 -32 96 -3 96 -3 20 -57 19 -58
157 0 158 0 18 60 18 60 94 0 c101 0 102 1 82 59 l-11 31 -359 0 c-279 0 -360
-3 -363 -12z"/>
<path d="M20 216 l0 -216 123 0 c175 1 237 33 237 123 0 31 -7 46 -33 72 l-32
32 20 27 c31 42 25 101 -14 140 l-31 31 -135 3 -135 4 0 -216z"/>
<path d="M420 215 l0 -215 118 0 c139 0 182 10 216 51 42 49 31 132 -20 160
l-24 12 20 22 c30 32 36 86 14 124 -29 50 -66 61 -203 61 l-121 0 0 -215z"/>
<path d="M820 215 l0 -215 118 0 c134 0 174 9 214 47 38 37 40 107 3 147 -13
14 -30 26 -36 26 -7 0 -3 10 10 24 30 32 37 85 16 125 -25 49 -65 61 -205 61
l-120 0 0 -215z"/>
</g>
</svg>
