<?xml version="1.0" standalone="no"?>
<!DOCTYPE svg PUBLIC "-//W3C//DTD SVG 20010904//EN"
 "http://www.w3.org/TR/2001/REC-SVG-20010904/DTD/svg10.dtd">
<svg version="1.0" xmlns="http://www.w3.org/2000/svg"
 width="1280.000000pt" height="623.000000pt" viewBox="0 0 1280.000000 623.000000"
 preserveAspectRatio="xMidYMid meet">
<metadata>
Created by potrace 1.15, written by Peter Selinger 2001-2017
</metadata>
<g transform="translate(0.000000,623.000000) scale(0.100000,-0.100000)"
fill="#000000" stroke="none">
<path d="M10125 5794 c-218 -33 -529 -127 -710 -213 -115 -55 -158 -88 -185
-142 -39 -75 -40 -73 226 -494 561 -889 777 -1225 815 -1269 65 -73 141 -104
210 -86 54 15 104 62 126 118 32 83 21 340 -62 1527 -13 193 -27 376 -31 407
-12 116 -81 169 -219 167 -44 -1 -120 -7 -170 -15z"/>
<path d="M11693 4429 c-17 -5 -51 -31 -75 -58 -38 -43 -608 -814 -653 -884
-39 -61 -15 -176 52 -239 63 -60 131 -70 246 -38 40 11 274 70 522 131 265 65
466 119 489 132 74 41 95 129 57 238 -70 203 -316 565 -456 669 -27 21 -68 43
-90 49 -46 12 -49 12 -92 0z"/>
<path d="M5399 4195 c-63 -20 -133 -84 -156 -143 -17 -45 -18 -114 -18 -1392
0 -1046 3 -1354 12 -1386 19 -61 53 -105 107 -139 45 -27 57 -30 135 -30 125
0 196 42 245 145 l21 45 3 1300 c3 1311 0 1431 -33 1494 -17 34 -62 74 -105
96 -46 24 -153 29 -211 10z"/>
<path d="M8994 3636 c-68 -30 -104 -106 -134 -282 -38 -224 -36 -533 6 -675
37 -126 115 -171 239 -138 91 24 1010 321 1036 334 51 27 89 103 89 180 0 48
-39 132 -74 157 -13 10 -216 96 -450 192 -640 263 -640 263 -712 232z"/>
<path d="M6590 3491 c-51 -16 -109 -51 -128 -78 -49 -71 -47 -11 -50 -1403 -2
-898 1 -1327 8 -1375 13 -84 48 -147 98 -179 141 -88 326 -52 394 77 22 40 23
56 28 372 4 225 10 339 18 358 l12 28 72 -50 c150 -103 271 -137 467 -128 386
16 667 246 766 627 71 273 84 762 29 1040 -75 375 -261 588 -593 678 -83 22
-116 26 -246 26 -136 0 -157 -2 -230 -27 -44 -15 -114 -47 -155 -71 -41 -25
-96 -56 -122 -70 l-47 -26 -6 30 c-16 71 -71 137 -137 164 -39 17 -135 20
-178 7z m1215 -496 c148 -72 218 -249 232 -580 7 -183 -8 -387 -37 -499 -58
-229 -181 -324 -405 -314 -79 3 -101 8 -158 36 -106 52 -169 140 -209 290 -16
61 -21 121 -25 279 -10 366 33 588 136 706 93 105 332 148 466 82z"/>
<path d="M2102 3449 c-52 -26 -94 -75 -132 -154 -15 -33 -106 -325 -201 -650
-95 -324 -175 -593 -178 -597 -3 -4 -164 291 -357 655 -388 733 -375 713 -486
736 -112 24 -248 -41 -300 -144 -25 -49 -34 -144 -20 -212 7 -30 185 -405 436
-916 233 -476 429 -882 435 -904 24 -86 3 -170 -55 -225 -43 -40 -75 -48 -193
-48 -127 0 -196 -17 -247 -62 -53 -47 -77 -102 -78 -178 -1 -82 31 -143 101
-189 78 -52 140 -66 288 -66 339 1 502 110 624 415 46 117 700 2180 712 2248
14 77 -2 156 -41 210 -61 85 -220 126 -308 81z"/>
<path d="M3585 3459 c-126 -17 -238 -49 -335 -96 -81 -40 -109 -61 -191 -142
-86 -87 -101 -107 -153 -211 -85 -173 -117 -318 -137 -620 -20 -327 26 -619
133 -835 108 -219 278 -360 513 -427 70 -20 103 -23 270 -23 205 0 280 11 432
61 275 92 463 278 463 457 0 59 -33 139 -71 174 -61 56 -165 69 -234 30 -22
-13 -78 -54 -124 -91 -94 -76 -214 -139 -299 -157 -31 -6 -97 -9 -146 -7 -76
3 -102 9 -156 34 -154 73 -243 216 -243 393 0 47 4 58 27 78 l27 23 586 0
c644 0 637 -1 669 61 28 56 37 180 24 353 -14 202 -31 300 -71 412 -105 302
-315 479 -629 530 -94 15 -247 16 -355 3z m245 -473 c100 -36 193 -133 231
-241 22 -63 44 -207 35 -230 -5 -13 -68 -15 -460 -15 l-455 0 -12 22 c-25 47
9 176 76 278 93 145 241 214 440 206 57 -2 120 -11 145 -20z"/>
<path d="M11148 2786 c-95 -35 -141 -95 -146 -195 -4 -77 -37 -14 291 -546
304 -491 316 -509 373 -531 61 -23 115 -9 198 50 149 106 379 394 473 591 63
134 49 236 -40 282 -39 19 -1039 351 -1082 358 -16 3 -47 -1 -67 -9z"/>
<path d="M10320 2558 c-36 -19 -107 -96 -363 -398 -350 -413 -401 -477 -417
-526 -15 -46 3 -106 46 -154 66 -73 258 -171 479 -245 161 -54 262 -75 358
-75 81 0 120 18 161 73 20 27 21 45 29 385 4 196 6 463 5 593 l-3 236 -27 40
c-55 84 -178 116 -268 71z"/>
<path d="M8711 1522 c-48 -24 -73 -62 -78 -119 -13 -146 190 -212 268 -87 77
124 -60 273 -190 206z m156 -46 c76 -83 19 -206 -95 -206 -37 0 -50 6 -77 33
-43 43 -52 79 -34 131 32 92 140 114 206 42z"/>
</g>
</svg>
