<?xml version="1.0" standalone="no"?>
<!DOCTYPE svg PUBLIC "-//W3C//DTD SVG 20010904//EN"
 "http://www.w3.org/TR/2001/REC-SVG-20010904/DTD/svg10.dtd">
<svg version="1.0" xmlns="http://www.w3.org/2000/svg"
 width="200.000000pt" height="127.000000pt" viewBox="0 0 200.000000 127.000000"
 preserveAspectRatio="xMidYMid meet">
<metadata>
Created by potrace 1.15, written by Peter Selinger 2001-2017
</metadata>
<g transform="translate(0.000000,127.000000) scale(0.100000,-0.100000)"
fill="#000000" stroke="none">
<path d="M111 1186 c-8 -10 -11 -114 -9 -379 3 -301 1 -367 -11 -374 -18 -11
-26 -104 -12 -132 11 -19 20 -21 107 -21 l96 0 -4 79 c-2 44 0 77 5 74 4 -2 7
-11 7 -19 0 -8 5 -14 10 -14 7 0 7 -6 0 -19 -5 -11 -10 -40 -10 -65 0 -55 25
-86 70 -86 25 0 29 -4 27 -22 -1 -17 4 -24 19 -26 11 -2 28 -16 38 -33 26 -44
89 -72 149 -66 63 6 96 30 127 95 l25 52 183 0 c175 0 182 -1 182 -20 0 -19 7
-20 109 -20 l108 0 -2 38 c-2 20 -1 29 2 19 2 -9 13 -17 23 -17 12 0 21 -10
25 -30 4 -17 18 -44 32 -61 73 -87 194 -78 259 19 26 38 30 112 8 154 -8 15
-13 30 -12 32 2 2 -6 15 -17 28 -11 13 -5 9 12 -10 32 -34 50 -88 40 -116 -4
-11 18 -14 117 -15 l123 -2 1 51 c0 33 -3 50 -11 50 -9 0 -12 35 -12 128 l0
127 -39 75 c-73 142 -143 240 -184 258 -52 23 -324 25 -346 2 -19 -19 -19 -25
-17 -282 l1 -208 123 0 c97 0 127 -3 143 -16 19 -15 19 -16 -1 -8 -11 5 -80
10 -152 12 l-133 4 -2 386 -3 387 -591 3 c-495 2 -593 0 -603 -12z m1612 -345
c9 -7 39 -53 67 -101 45 -78 50 -94 50 -147 0 -91 -3 -92 -177 -43 -202 58
-219 65 -232 102 -12 35 -15 191 -3 202 13 14 277 2 295 -13z m-1083 -561 c27
-50 -11 -120 -65 -120 -51 0 -89 63 -69 115 18 45 111 48 134 5z m948 3 c28
-31 24 -78 -9 -105 -47 -39 -123 -1 -121 61 2 77 78 102 130 44z"/>
</g>
</svg>
